# File created by Blade
# Date/Time:  Thu Jan 22 19:29:39 2015
# Frame Rate: 120.000 fps
#------------------------------------------------------
:FULLY-SPECIFIED
:DEGREES
1895
root -3.852151 33.054153 2.656584 6.531928 -6.702822 1.964092
RightUpLeg -1.420888 -2.624098 1.387658
RightLeg 3.648290 -0.000000 -0.000000
RightFoot -13.525804 -2.333607 2.542229
RightToeBase 4.105006 -0.000000 -0.000000
LeftUpLeg -5.275856 5.224707 -0.188420
LeftLeg 13.221094 -0.000000 -0.000000
LeftFoot -19.037373 10.299688 -14.913679
LeftToeBase -3.447586 -0.000000 0.000000
Spine -9.457200 -0.571077 -2.473546
RightShoulder -17.929554 -13.404191 -26.125907
RightArm 20.279703 31.425737 39.775480
RightForeArm -1.803988 -0.000000 14.719821
RightHand 11.337170 -0.000000 2.142425
RightHandThumb1 -24.326973 -0.000000 -32.862282
LeftShoulder -26.429491 9.941175 24.508635
LeftArm 10.140107 -34.186947 -44.669069
LeftForeArm -8.439868 -0.000000 54.069599
LeftHand -5.632867 -0.000000 30.084248
LeftHandThumb1 -26.253704 0.000000 33.147579
Head -6.202479 8.712267 -3.019883
1896
root -3.918470 33.047224 2.659327 6.558246 -6.670346 1.926381
RightUpLeg -1.348657 -2.396639 1.535395
RightLeg 3.502759 -0.000000 -0.000000
RightFoot -13.487228 -2.541400 2.493834
RightToeBase 4.155648 -0.000000 -0.000000
LeftUpLeg -5.607159 5.500907 -0.044125
LeftLeg 13.704592 -0.000000 -0.000000
LeftFoot -18.907338 10.131174 -15.300833
LeftToeBase -0.543381 -0.000000 0.000000
Spine -9.401714 -0.570384 -2.446857
RightShoulder -17.897216 -13.304499 -26.184324
RightArm 20.361743 31.492467 39.843181
RightForeArm -1.879834 -0.000000 14.195160
RightHand 11.194792 0.000000 2.226266
RightHandThumb1 -24.326973 -0.000000 -32.862282
LeftShoulder -26.444349 9.926792 24.559884
LeftArm 10.540675 -34.093743 -44.605105
LeftForeArm -8.218413 -0.000000 52.616294
LeftHand -4.989392 -0.000000 30.209304
LeftHandThumb1 -26.253704 0.000000 33.147579
Head -6.304941 8.697012 -2.973035
1897
root -3.983533 33.039998 2.662660 6.579612 -6.612685 1.878519
RightUpLeg -1.291057 -2.434083 1.692088
RightLeg 3.406126 -0.000000 -0.000000
RightFoot -13.447246 -2.509473 2.394409
RightToeBase 4.105064 -0.000000 -0.000000
LeftUpLeg -5.959229 5.551509 0.122303
LeftLeg 14.270197 -0.000000 -0.000000
LeftFoot -18.919574 9.917593 -16.034071
LeftToeBase 1.502427 -0.000000 -0.000000
Spine -9.343597 -0.539158 -2.417808
RightShoulder -17.926600 -13.277304 -26.203330
RightArm 20.471500 31.617651 39.934767
RightForeArm -1.932163 -0.000000 13.737024
RightHand 11.241135 -0.000000 2.457361
RightHandThumb1 -24.326973 -0.000000 -32.862282
LeftShoulder -26.425855 9.948033 24.589608
LeftArm 10.992205 -33.845004 -44.482662
LeftForeArm -7.968046 0.000000 51.161354
LeftHand -4.609915 -0.000000 30.657948
LeftHandThumb1 -26.253704 0.000000 33.147579
Head -6.389917 8.606955 -2.899550
1898
root -4.039035 33.032999 2.667797 6.586879 -6.549151 1.862469
RightUpLeg -1.248982 -2.617741 1.805696
RightLeg 3.366474 -0.000000 -0.000000
RightFoot -13.451586 -2.370896 2.248166
RightToeBase 4.065463 -0.000000 -0.000000
LeftUpLeg -6.306430 5.514450 0.235989
LeftLeg 14.877335 -0.000000 -0.000000
LeftFoot -19.021951 9.890971 -16.682415
LeftToeBase 3.237640 -0.000000 -0.000000
Spine -9.267051 -0.544026 -2.390462
RightShoulder -17.880006 -13.254257 -26.270531
RightArm 20.477337 31.731021 40.014547
RightForeArm -1.965389 -0.000000 13.397865
RightHand 10.947318 -0.000000 2.347524
RightHandThumb1 -24.326973 -0.000000 -32.862282
LeftShoulder -26.378476 9.849255 24.662788
LeftArm 11.271889 -33.717421 -44.338745
LeftForeArm -7.682353 -0.000000 49.750555
LeftHand -4.278387 -0.000000 30.417617
LeftHandThumb1 -26.253704 0.000000 33.147579
Head -6.496527 8.575838 -2.876029
1899
root -4.092987 33.030171 2.669388 6.626762 -6.498841 1.833780
RightUpLeg -1.127016 -2.226247 1.935182
RightLeg 3.072775 -0.000000 -0.000000
RightFoot -13.328000 -2.788224 2.299063
RightToeBase 4.052408 -0.000000 -0.000000
LeftUpLeg -6.707543 5.552871 0.332659
LeftLeg 15.528433 -0.000000 -0.000000
LeftFoot -19.078595 9.973141 -17.078033
LeftToeBase 4.458713 -0.000000 -0.000000
Spine -9.207339 -0.489644 -2.370787
RightShoulder -17.945829 -13.215396 -26.277754
RightArm 20.510483 31.820652 40.083493
RightForeArm -2.009731 -0.000000 13.072127
RightHand 10.828467 -0.000000 2.362267
RightHandThumb1 -24.326973 -0.000000 -32.862282
LeftShoulder -26.324963 9.737475 24.736105
LeftArm 11.585997 -33.393635 -44.149330
LeftForeArm -7.445627 -0.000000 48.291199
LeftHand -4.019613 -0.000000 29.715386
LeftHandThumb1 -26.253704 0.000000 33.147579
Head -6.625526 8.521920 -2.824616
1900
root -4.142931 33.028302 2.673403 6.648950 -6.427307 1.842969
RightUpLeg -1.039371 -2.200252 2.017653
RightLeg 2.898905 -0.000000 -0.000000
RightFoot -13.254504 -2.866115 2.254661
RightToeBase 4.089120 -0.000000 -0.000000
LeftUpLeg -7.142402 5.506722 0.411344
LeftLeg 16.320943 -0.000000 -0.000000
LeftFoot -19.096344 9.924315 -17.208792
LeftToeBase 5.224979 -0.000000 -0.000000
Spine -9.141355 -0.489471 -2.384839
RightShoulder -17.927369 -13.231636 -26.313217
RightArm 20.506679 32.034410 40.237109
RightForeArm -2.147051 0.000000 12.823884
RightHand 10.852493 -0.000000 2.479748
RightHandThumb1 -24.326973 -0.000000 -32.862282
LeftShoulder -26.274614 9.691514 24.811935
LeftArm 11.923898 -33.181909 -44.058465
LeftForeArm -7.368590 -0.000000 46.876438
LeftHand -3.591495 -0.000000 29.557843
LeftHandThumb1 -26.253704 0.000000 33.147579
Head -6.733197 8.504169 -2.749363
1901
root -4.190033 33.029528 2.679988 6.681347 -6.360428 1.882905
RightUpLeg -0.969539 -2.295841 2.065226
RightLeg 2.725255 -0.000000 -0.000000
RightFoot -13.186472 -2.863990 2.080532
RightToeBase 4.145341 -0.000000 -0.000000
LeftUpLeg -7.528489 5.465650 0.440398
LeftLeg 17.023919 -0.000000 -0.000000
LeftFoot -19.081399 9.865989 -17.376107
LeftToeBase 5.515916 -0.000000 -0.000000
Spine -9.106107 -0.477987 -2.451959
RightShoulder -17.934770 -13.246966 -26.285496
RightArm 20.466626 32.120651 40.281314
RightForeArm -2.142752 -0.000000 12.635579
RightHand 10.766764 0.000000 2.275182
RightHandThumb1 -24.326973 -0.000000 -32.862282
LeftShoulder -26.190828 9.642033 24.907106
LeftArm 12.262421 -33.000406 -43.976455
LeftForeArm -7.295209 -0.000000 45.481046
LeftHand -3.250422 -0.000000 29.575548
LeftHandThumb1 -26.253704 0.000000 33.147579
Head -6.783580 8.418244 -2.628224
1902
root -4.230006 33.032302 2.688261 6.714075 -6.275317 1.941230
RightUpLeg -0.888419 -2.404740 2.085187
RightLeg 2.535322 -0.000000 -0.000000
RightFoot -13.112689 -2.860257 2.028112
RightToeBase 4.181594 -0.000000 -0.000000
LeftUpLeg -7.924849 5.266731 0.447080
LeftLeg 17.746910 -0.000000 -0.000000
LeftFoot -19.126124 9.912623 -17.697959
LeftToeBase 5.748920 -0.000000 -0.000000
Spine -9.066394 -0.505411 -2.509201
RightShoulder -17.976845 -13.289728 -26.251548
RightArm 20.502555 32.175797 40.333627
RightForeArm -2.084092 -0.000000 12.442508
RightHand 10.777782 -0.000000 2.248585
RightHandThumb1 -24.326973 -0.000000 -32.862282
LeftShoulder -26.095968 9.515968 25.020011
LeftArm 12.462280 -32.716365 -43.824085
LeftForeArm -7.276418 -0.000000 44.099919
LeftHand -2.789641 -0.000000 29.638610
LeftHandThumb1 -26.253704 0.000000 33.147579
Head -6.889485 8.381891 -2.584243
1903
root -4.267947 33.037519 2.700128 6.713628 -6.222062 2.025464
RightUpLeg -0.768570 -2.469307 2.067423
RightLeg 2.343833 -0.000000 -0.000000
RightFoot -13.005183 -2.840098 1.901965
RightToeBase 4.141977 -0.000000 -0.000000
LeftUpLeg -8.256993 5.156308 0.439293
LeftLeg 18.427300 -0.000000 -0.000000
LeftFoot -19.049227 9.926891 -17.902670
LeftToeBase 5.708961 -0.000000 -0.000000
Spine -9.004374 -0.482477 -2.613048
RightShoulder -17.981227 -13.336590 -26.232331
RightArm 20.439966 32.262363 40.400458
RightForeArm -2.155739 -0.000000 12.317709
RightHand 10.649015 0.000000 2.389861
RightHandThumb1 -24.326973 -0.000000 -32.862282
LeftShoulder -26.032531 9.548530 25.078853
LeftArm 12.899411 -32.604444 -43.859390
LeftForeArm -7.198931 -0.000000 42.728067
LeftHand -2.425322 0.000000 29.510997
LeftHandThumb1 -26.253704 0.000000 33.147579
Head -6.942485 8.384250 -2.470839
1904
root -4.303925 33.043639 2.709968 6.720763 -6.161623 2.131140
RightUpLeg -0.670688 -2.496057 2.029183
RightLeg 2.158243 -0.000000 -0.000000
RightFoot -12.925888 -2.878445 1.840651
RightToeBase 4.131242 -0.000000 -0.000000
LeftUpLeg -8.611128 5.027041 0.404525
LeftLeg 19.102960 -0.000000 -0.000000
LeftFoot -18.962417 9.935886 -18.172213
LeftToeBase 5.685664 -0.000000 -0.000000
Spine -8.940196 -0.499586 -2.746757
RightShoulder -17.993207 -13.383759 -26.195093
RightArm 20.395040 32.286916 40.463707
RightForeArm -2.159883 -0.000000 12.236690
RightHand 10.609009 -0.000000 2.247234
RightHandThumb1 -24.326973 -0.000000 -32.862282
LeftShoulder -25.922062 9.405036 25.216711
LeftArm 13.075903 -32.343767 -43.716547
LeftForeArm -7.105643 -0.000000 41.358470
LeftHand -1.980019 0.000000 29.594160
LeftHandThumb1 -26.253704 0.000000 33.147579
Head -7.025244 8.337751 -2.375475
1905
root -4.338271 33.051564 2.719071 6.744390 -6.131699 2.242324
RightUpLeg -0.607399 -2.452200 1.985325
RightLeg 2.013975 -0.000000 -0.000000
RightFoot -12.838633 -2.959953 1.899278
RightToeBase 4.135760 -0.000000 -0.000000
LeftUpLeg -8.952070 4.802215 0.396148
LeftLeg 19.761251 -0.000000 -0.000000
LeftFoot -18.834575 9.845239 -18.425911
LeftToeBase 5.531776 -0.000000 -0.000000
Spine -8.895662 -0.492397 -2.887466
RightShoulder -18.033199 -13.414469 -26.154884
RightArm 20.371004 32.342976 40.574910
RightForeArm -2.220697 -0.000000 12.204882
RightHand 10.556462 -0.000000 2.291152
RightHandThumb1 -24.326973 -0.000000 -32.862282
LeftShoulder -25.871727 9.376250 25.313378
LeftArm 13.466918 -32.230603 -43.766725
LeftForeArm -6.978969 -0.000000 39.957438
LeftHand -1.501076 -0.000000 29.785751
LeftHandThumb1 -26.253704 0.000000 33.147579
Head -7.113316 8.367098 -2.297260
